<?xml version="1.0" encoding="utf-8"?>
<!-- Generator: Adobe Illustrator 21.1.0, SVG Export Plug-In . SVG Version: 6.00 Build 0)  -->
<svg version="1.1" id="Capa_1" xmlns="http://www.w3.org/2000/svg" xmlns:xlink="http://www.w3.org/1999/xlink" x="0px" y="0px"
	 viewBox="0 0 463 463" style="enable-background:new 0 0 463 463;" xml:space="preserve">
<style type="text/css">
	.st0{fill:#5C5C6A;stroke:#000000;stroke-miterlimit:10;}
</style>
<g>
	<path class="st0" d="M439,47.4c0-2.8-1.6-5.3-4.1-6.5C431.7,39.2,354.6,0,231.5,0c0,0,0,0,0,0s0,0,0,0C108.4,0,31.3,39.2,28.1,40.8
		c-2.5,1.3-4,3.8-4.1,6.5C22.6,133,39.5,219.1,71.6,289.8c35.8,79,89.6,138.4,155.8,172c1.2,0.8,2.6,1.2,4,1.2c0,0,0,0,0.1,0
		c0.4,0,0.8,0,1.2-0.1c0.1,0,0.3-0.1,0.4-0.1c0.3-0.1,0.5-0.1,0.7-0.2c0.1,0,0.3-0.1,0.4-0.2c0.2-0.1,0.4-0.2,0.7-0.3
		c0.1-0.1,0.3-0.1,0.4-0.2c0.1,0,0.2-0.1,0.2-0.1c66.2-33.6,120.1-93,155.8-172C423.5,219.1,440.4,133,439,47.4z M377.8,283.7
		c-33.9,74.7-84.4,131.1-146.3,163.4c-61.9-32.3-112.4-88.7-146.3-163.4C54.7,216.2,38.3,134.2,39,52.3C56.2,44.4,127.5,15,231.5,15
		C335.3,15,406.8,44.4,424,52.3C424.7,134.2,408.3,216.2,377.8,283.7z"/>
	<path class="st0" d="M402.1,61.6C373.2,50.5,312.6,32,231.5,32C150.4,32,89.8,50.5,60.9,61.6c-3,1.1-4.9,4-4.8,7.2
		c1.5,69.2,15.9,139.5,40.5,198.1c30.3,72.1,74.4,125.5,131.1,158.7c1.2,0.7,2.5,1,3.8,1s2.6-0.3,3.8-1
		c56.7-33.2,100.8-86.6,131.1-158.7c24.6-58.5,39-128.9,40.5-198.1C407,65.6,405,62.7,402.1,61.6z M85.5,183H104v61.9
		C96.7,225.3,90.5,204.5,85.5,183z M144,183v141.4c-9.1-13.7-17.4-28.5-25-44.3V183H144z M159,345.2V183h25v190.2
		C175.3,364.6,166.9,355.3,159,345.2z M224,183v222.6c-8.7-5.7-17-11.9-25-18.7V183H224z M264,183v203.9c-8,6.8-16.3,13-25,18.7V183
		H264z M279,373.2V183h25v162.1C296.2,355.2,287.8,364.5,279,373.2z M344,183v97c-7.6,15.8-15.9,30.6-25,44.3V183H344z M359,244.7
		V183h18.5C372.5,204.4,366.4,225.1,359,244.7z M380.8,168H82.2c-6.2-30.7-10-62.6-11-94.3C100.8,63,157.2,47,231.5,47
		c74.3,0,130.7,16,160.3,26.7C390.8,105.4,387,137.3,380.8,168z"/>
	<path class="st0" d="M244.8,130.2c-2.9-2.9-7.7-2.9-10.6,0l-2.7,2.7l-2.7-2.7c-2.9-2.9-7.7-2.9-10.6,0c-2.9,2.9-2.9,7.7,0,10.6
		l2.7,2.7l-2.7,2.7c-2.9,2.9-2.9,7.7,0,10.6c1.5,1.5,3.4,2.2,5.3,2.2s3.8-0.7,5.3-2.2l2.7-2.7l2.7,2.7c1.5,1.5,3.4,2.2,5.3,2.2
		s3.8-0.7,5.3-2.2c2.9-2.9,2.9-7.7,0-10.6l-2.7-2.7l2.7-2.7C247.8,137.9,247.8,133.1,244.8,130.2z"/>
	<path class="st0" d="M228.8,66.2c-2.9-2.9-7.7-2.9-10.6,0c-2.9,2.9-2.9,7.7,0,10.6l2.7,2.7l-2.7,2.7c-2.9,2.9-2.9,7.7,0,10.6
		c1.5,1.5,3.4,2.2,5.3,2.2s3.8-0.7,5.3-2.2l2.7-2.7l2.7,2.7c1.5,1.5,3.4,2.2,5.3,2.2s3.8-0.7,5.3-2.2c2.9-2.9,2.9-7.7,0-10.6
		l-2.7-2.7l2.7-2.7c2.9-2.9,2.9-7.7,0-10.6c-2.9-2.9-7.7-2.9-10.6,0l-2.7,2.7L228.8,66.2z"/>
	<path class="st0" d="M298.2,156.8c1.5,1.5,3.4,2.2,5.3,2.2s3.8-0.7,5.3-2.2l2.7-2.7l2.7,2.7c1.5,1.5,3.4,2.2,5.3,2.2
		s3.8-0.7,5.3-2.2c2.9-2.9,2.9-7.7,0-10.6l-2.7-2.7l2.7-2.7c2.9-2.9,2.9-7.7,0-10.6c-2.9-2.9-7.7-2.9-10.6,0l-2.7,2.7l-2.7-2.7
		c-2.9-2.9-7.7-2.9-10.6,0c-2.9,2.9-2.9,7.7,0,10.6l2.7,2.7l-2.7,2.7C295.3,149.1,295.3,153.9,298.2,156.8z"/>
	<path class="st0" d="M298.2,92.8c1.5,1.5,3.4,2.2,5.3,2.2s3.8-0.7,5.3-2.2l2.7-2.7l2.7,2.7c1.5,1.5,3.4,2.2,5.3,2.2
		s3.8-0.7,5.3-2.2c2.9-2.9,2.9-7.7,0-10.6l-2.7-2.7l2.7-2.7c2.9-2.9,2.9-7.7,0-10.6c-2.9-2.9-7.7-2.9-10.6,0l-2.7,2.7l-2.7-2.7
		c-2.9-2.9-7.7-2.9-10.6,0c-2.9,2.9-2.9,7.7,0,10.6l2.7,2.7l-2.7,2.7C295.3,85.1,295.3,89.9,298.2,92.8z"/>
	<path class="st0" d="M164.8,130.2c-2.9-2.9-7.7-2.9-10.6,0l-2.7,2.7l-2.7-2.7c-2.9-2.9-7.7-2.9-10.6,0c-2.9,2.9-2.9,7.7,0,10.6
		l2.7,2.7l-2.7,2.7c-2.9,2.9-2.9,7.7,0,10.6c1.5,1.5,3.4,2.2,5.3,2.2s3.8-0.7,5.3-2.2l2.7-2.7l2.7,2.7c1.5,1.5,3.4,2.2,5.3,2.2
		s3.8-0.7,5.3-2.2c2.9-2.9,2.9-7.7,0-10.6l-2.7-2.7l2.7-2.7C167.8,137.9,167.8,133.1,164.8,130.2z"/>
	<path class="st0" d="M164.8,66.2c-2.9-2.9-7.7-2.9-10.6,0l-2.7,2.7l-2.7-2.7c-2.9-2.9-7.7-2.9-10.6,0c-2.9,2.9-2.9,7.7,0,10.6
		l2.7,2.7l-2.7,2.7c-2.9,2.9-2.9,7.7,0,10.6c1.5,1.5,3.4,2.2,5.3,2.2s3.8-0.7,5.3-2.2l2.7-2.7l2.7,2.7c1.5,1.5,3.4,2.2,5.3,2.2
		s3.8-0.7,5.3-2.2c2.9-2.9,2.9-7.7,0-10.6l-2.7-2.7l2.7-2.7C167.8,73.9,167.8,69.1,164.8,66.2z"/>
	<path class="st0" d="M258.2,124.8c1.5,1.5,3.4,2.2,5.3,2.2s3.8-0.7,5.3-2.2l2.7-2.7l2.7,2.7c1.5,1.5,3.4,2.2,5.3,2.2
		s3.8-0.7,5.3-2.2c2.9-2.9,2.9-7.7,0-10.6l-2.7-2.7l2.7-2.7c2.9-2.9,2.9-7.7,0-10.6c-2.9-2.9-7.7-2.9-10.6,0l-2.7,2.7l-2.7-2.7
		c-2.9-2.9-7.7-2.9-10.6,0c-2.9,2.9-2.9,7.7,0,10.6l2.7,2.7l-2.7,2.7C255.3,117.1,255.3,121.9,258.2,124.8z"/>
	<path class="st0" d="M338.2,124.8c1.5,1.5,3.4,2.2,5.3,2.2s3.8-0.7,5.3-2.2l2.7-2.7l2.7,2.7c1.5,1.5,3.4,2.2,5.3,2.2
		s3.8-0.7,5.3-2.2c2.9-2.9,2.9-7.7,0-10.6l-2.7-2.7l2.7-2.7c2.9-2.9,2.9-7.7,0-10.6c-2.9-2.9-7.7-2.9-10.6,0l-2.7,2.7l-2.7-2.7
		c-2.9-2.9-7.7-2.9-10.6,0c-2.9,2.9-2.9,7.7,0,10.6l2.7,2.7l-2.7,2.7C335.3,117.1,335.3,121.9,338.2,124.8z"/>
	<path class="st0" d="M124.8,98.2c-2.9-2.9-7.7-2.9-10.6,0l-2.7,2.7l-2.7-2.7c-2.9-2.9-7.7-2.9-10.6,0c-2.9,2.9-2.9,7.7,0,10.6
		l2.7,2.7l-2.7,2.7c-2.9,2.9-2.9,7.7,0,10.6c1.5,1.5,3.4,2.2,5.3,2.2s3.8-0.7,5.3-2.2l2.7-2.7l2.7,2.7c1.5,1.5,3.4,2.2,5.3,2.2
		s3.8-0.7,5.3-2.2c2.9-2.9,2.9-7.7,0-10.6l-2.7-2.7l2.7-2.7C127.8,105.9,127.8,101.1,124.8,98.2z"/>
	<path class="st0" d="M204.8,98.2c-2.9-2.9-7.7-2.9-10.6,0l-2.7,2.7l-2.7-2.7c-2.9-2.9-7.7-2.9-10.6,0c-2.9,2.9-2.9,7.7,0,10.6
		l2.7,2.7l-2.7,2.7c-2.9,2.9-2.9,7.7,0,10.6c1.5,1.5,3.4,2.2,5.3,2.2s3.8-0.7,5.3-2.2l2.7-2.7l2.7,2.7c1.5,1.5,3.4,2.2,5.3,2.2
		s3.8-0.7,5.3-2.2c2.9-2.9,2.9-7.7,0-10.6l-2.7-2.7l2.7-2.7C207.8,105.9,207.8,101.1,204.8,98.2z"/>
</g>
</svg>
