<?xml version="1.0" encoding="iso-8859-1"?>
<!-- Generator: Adobe Illustrator 19.0.0, SVG Export Plug-In . SVG Version: 6.00 Build 0)  -->
<svg version="1.1" id="Capa_1" xmlns="http://www.w3.org/2000/svg" xmlns:xlink="http://www.w3.org/1999/xlink" x="0px" y="0px"
	 viewBox="0 0 463 463" style="enable-background:new 0 0 463 463;" xml:space="preserve">
<g>
	<path d="M315.5,144c-8.497,0-16.304,3.004-22.422,8.001C288.289,138.055,275.051,128,259.5,128c-8.372,0-16.07,2.919-22.146,7.785
		C232.808,122.012,219.353,112,203.5,112c-7.633,0-14.705,2.329-20.5,6.273V35.5C183,15.925,167.075,0,147.5,0S112,15.925,112,35.5
		v300c0,0.494,0.049,0.986,0.146,1.471l21.428,107.138C135.763,455.055,145.454,463,156.617,463H311.5
		c12.958,0,23.5-10.542,23.5-23.5V281.144c9.63-6.356,16-17.267,16-29.644v-72C351,159.925,335.075,144,315.5,144z M259.5,143
		c11.304,0,20.5,9.196,20.5,20.5v16v64c0,11.304-9.196,20.5-20.5,20.5s-20.5-9.196-20.5-20.5v-6.526V163.5
		C239,152.196,248.196,143,259.5,143z M203.5,127c11.304,0,20.5,8.535,20.5,19.026V163.5v73.474c0,9.566-7.653,17.483-17.57,18.809
		c-2.641-10.54-10.057-19.747-20.845-24.215c-0.856-0.354-1.719-0.661-2.585-0.944v-84.597C183,135.535,192.196,127,203.5,127z
		 M147.5,15c11.304,0,20.5,9.196,20.5,20.5v110.526v83.077c-12.399,1.428-23.692,9.351-28.798,21.676
		c0,0-6.042,14.584-12.202,29.455V35.5C127,24.196,136.196,15,147.5,15z M320,439.5c0,4.687-3.813,8.5-8.5,8.5H156.617
		c-4.038,0-7.543-2.874-8.335-6.833L127,334.757v-9.871c0.008-1.169,0.314-6.21,1.679-9.506
		c4.197-10.142,24.381-58.859,24.381-58.86c3.347-8.077,11.293-12.861,19.553-12.624c0.889,0.371,1.864,0.578,2.888,0.578
		c0.352,0,0.696-0.033,1.035-0.08c1.113,0.253,2.22,0.58,3.309,1.031c10.443,4.326,15.42,16.342,11.095,26.785l-22.368,54
		c-0.377,0.91-0.571,1.885-0.571,2.87v42.42c0,4.143,3.357,7.5,7.5,7.5s7.5-3.357,7.5-7.5v-40.928l21.797-52.622
		c0.968-2.336,1.661-4.718,2.106-7.11c8.449-0.774,16.044-4.395,21.722-9.852C234.735,271.732,246.281,279,259.5,279
		c9.725,0,18.547-3.933,24.965-10.29C290.532,279.608,302.167,287,315.5,287c1.525,0,3.025-0.108,4.5-0.295V439.5z M336,251.5
		c0,11.304-9.196,20.5-20.5,20.5s-20.5-9.196-20.5-20.5v-8v-64c0-11.304,9.196-20.5,20.5-20.5s20.5,9.196,20.5,20.5V251.5z"/>
	<path d="M143.5,95h8c4.143,0,7.5-3.357,7.5-7.5s-3.357-7.5-7.5-7.5h-8c-4.143,0-7.5,3.357-7.5,7.5S139.357,95,143.5,95z"/>
	<path d="M143.5,167h8c4.143,0,7.5-3.357,7.5-7.5s-3.357-7.5-7.5-7.5h-8c-4.143,0-7.5,3.357-7.5,7.5S139.357,167,143.5,167z"/>
	<path d="M199.5,223h8c4.143,0,7.5-3.357,7.5-7.5s-3.357-7.5-7.5-7.5h-8c-4.143,0-7.5,3.357-7.5,7.5S195.357,223,199.5,223z"/>
	<path d="M255.5,231h8c4.143,0,7.5-3.357,7.5-7.5s-3.357-7.5-7.5-7.5h-8c-4.143,0-7.5,3.357-7.5,7.5S251.357,231,255.5,231z"/>
	<path d="M319.5,232h-8c-4.143,0-7.5,3.357-7.5,7.5s3.357,7.5,7.5,7.5h8c4.143,0,7.5-3.357,7.5-7.5S323.643,232,319.5,232z"/>
	<path d="M303.5,408H295v-80.5c0-4.143-3.357-7.5-7.5-7.5s-7.5,3.357-7.5,7.5v8.5h-8.5c-4.143,0-7.5,3.357-7.5,7.5
		s3.357,7.5,7.5,7.5h8.5v57h-8.5c-4.143,0-7.5,3.357-7.5,7.5s3.357,7.5,7.5,7.5h32c4.143,0,7.5-3.357,7.5-7.5S307.643,408,303.5,408
		z"/>
	<path d="M255.499,375c4.143,0,7.5-3.357,7.5-7.5s-3.357-7.5-7.5-7.5h-8.5v-8.5c0-4.143-3.357-7.5-7.5-7.5s-7.5,3.357-7.5,7.5v8.5
		h-9v-8.5c0-4.143-3.357-7.5-7.5-7.5s-7.5,3.357-7.5,7.5v8.5h-8.5c-4.143,0-7.5,3.357-7.5,7.5s3.357,7.5,7.5,7.5h8.5v9h-8.5
		c-4.143,0-7.5,3.357-7.5,7.5s3.357,7.5,7.5,7.5h8.5v8.5c0,4.143,3.357,7.5,7.5,7.5s7.5-3.357,7.5-7.5V399h9v8.5
		c0,4.143,3.357,7.5,7.5,7.5s7.5-3.357,7.5-7.5V399h8.5c4.143,0,7.5-3.357,7.5-7.5s-3.357-7.5-7.5-7.5h-8.5v-9H255.499z
		 M231.999,384h-9v-9h9V384z"/>
</g>
<g>
</g>
<g>
</g>
<g>
</g>
<g>
</g>
<g>
</g>
<g>
</g>
<g>
</g>
<g>
</g>
<g>
</g>
<g>
</g>
<g>
</g>
<g>
</g>
<g>
</g>
<g>
</g>
<g>
</g>
</svg>
