<?xml version="1.0" encoding="iso-8859-1"?>
<!-- Generator: Adobe Illustrator 19.0.0, SVG Export Plug-In . SVG Version: 6.00 Build 0)  -->
<svg version="1.1" id="Capa_1" xmlns="http://www.w3.org/2000/svg" xmlns:xlink="http://www.w3.org/1999/xlink" x="0px" y="0px"
	 viewBox="0 0 463.002 463.002" style="enable-background:new 0 0 463.002 463.002;" xml:space="preserve">
<g>
	<path d="M159.501,160c-12.958,0-23.5,10.542-23.5,23.5s10.542,23.5,23.5,23.5s23.5-10.542,23.5-23.5S172.459,160,159.501,160z
		 M159.501,192c-4.687,0-8.5-3.813-8.5-8.5s3.813-8.5,8.5-8.5s8.5,3.813,8.5,8.5S164.188,192,159.501,192z"/>
	<path d="M231.501,160c-12.958,0-23.5,10.542-23.5,23.5s10.542,23.5,23.5,23.5s23.5-10.542,23.5-23.5S244.459,160,231.501,160z
		 M231.501,192c-4.687,0-8.5-3.813-8.5-8.5s3.813-8.5,8.5-8.5s8.5,3.813,8.5,8.5S236.188,192,231.501,192z"/>
	<path d="M303.501,160c-12.958,0-23.5,10.542-23.5,23.5s10.542,23.5,23.5,23.5s23.5-10.542,23.5-23.5S316.459,160,303.501,160z
		 M303.501,192c-4.687,0-8.5-3.813-8.5-8.5s3.813-8.5,8.5-8.5s8.5,3.813,8.5,8.5S308.188,192,303.501,192z"/>
	<path d="M255.001,255.5c0-12.958-10.542-23.5-23.5-23.5s-23.5,10.542-23.5,23.5s10.542,23.5,23.5,23.5
		S255.001,268.458,255.001,255.5z M223.001,255.5c0-4.687,3.813-8.5,8.5-8.5s8.5,3.813,8.5,8.5s-3.813,8.5-8.5,8.5
		S223.001,260.187,223.001,255.5z"/>
	<path d="M210.197,132.803c1.465,1.464,3.385,2.197,5.304,2.197s3.839-0.732,5.304-2.197l10.696-10.696l10.696,10.696
		c1.465,1.464,3.385,2.197,5.304,2.197s3.839-0.732,5.304-2.197c2.929-2.929,2.929-7.678,0-10.606L242.108,111.5l10.697-10.697
		c2.929-2.929,2.929-7.678,0-10.606c-2.93-2.929-7.678-2.929-10.607,0l-10.696,10.696l-10.696-10.696
		c-2.93-2.929-7.678-2.929-10.607,0c-2.929,2.929-2.929,7.678,0,10.606l10.697,10.697l-10.697,10.697
		C207.269,125.125,207.269,129.875,210.197,132.803z"/>
	<path d="M180.805,90.197c-2.93-2.929-7.678-2.929-10.607,0l-10.696,10.696l-10.696-10.696c-2.93-2.929-7.678-2.929-10.607,0
		c-2.929,2.929-2.929,7.678,0,10.606l10.697,10.697l-10.697,10.697c-2.929,2.929-2.929,7.678,0,10.606
		c1.465,1.464,3.385,2.197,5.304,2.197s3.839-0.732,5.304-2.197l10.696-10.696l10.696,10.696c1.465,1.464,3.385,2.197,5.304,2.197
		s3.839-0.732,5.304-2.197c2.929-2.929,2.929-7.678,0-10.606L170.108,111.5l10.697-10.697
		C183.733,97.875,183.733,93.125,180.805,90.197z"/>
	<path d="M282.197,132.803c1.465,1.464,3.385,2.197,5.304,2.197s3.839-0.732,5.304-2.197l10.696-10.696l10.696,10.696
		c1.465,1.464,3.385,2.197,5.304,2.197s3.839-0.732,5.304-2.197c2.929-2.929,2.929-7.678,0-10.606L314.108,111.5l10.697-10.697
		c2.929-2.929,2.929-7.678,0-10.606c-2.93-2.929-7.678-2.929-10.607,0l-10.696,10.696l-10.696-10.696
		c-2.93-2.929-7.678-2.929-10.607,0c-2.929,2.929-2.929,7.678,0,10.606l10.697,10.697l-10.697,10.697
		C279.269,125.125,279.269,129.875,282.197,132.803z"/>
	<path d="M279.501,263c48.248,0,87.5-39.252,87.5-87.5v-16.23l1.792,3.584c1.313,2.628,3.963,4.148,6.714,4.147
		c1.127,0,2.271-0.255,3.349-0.793c3.704-1.852,5.206-6.357,3.354-10.062l-16-32c-0.011-0.021-0.025-0.04-0.036-0.061
		c-0.146-0.285-0.307-0.562-0.487-0.825c-0.021-0.031-0.046-0.059-0.067-0.09c-0.159-0.224-0.331-0.437-0.512-0.642
		c-0.054-0.061-0.108-0.121-0.164-0.18c-0.423-0.447-0.899-0.84-1.421-1.173c-0.061-0.038-0.122-0.075-0.184-0.111
		c-0.233-0.139-0.473-0.267-0.722-0.381c-0.037-0.017-0.072-0.036-0.109-0.053c-0.288-0.126-0.585-0.234-0.891-0.323
		c-0.053-0.016-0.107-0.027-0.16-0.041c-0.251-0.068-0.506-0.122-0.766-0.163c-0.079-0.013-0.158-0.026-0.237-0.036
		c-0.312-0.04-0.628-0.067-0.951-0.067s-0.639,0.027-0.951,0.067c-0.08,0.01-0.158,0.023-0.237,0.036
		c-0.26,0.042-0.516,0.096-0.766,0.163c-0.053,0.014-0.107,0.026-0.16,0.041c-0.305,0.09-0.602,0.197-0.89,0.323
		c-0.037,0.016-0.073,0.036-0.11,0.053c-0.249,0.114-0.489,0.241-0.721,0.38c-0.062,0.037-0.123,0.073-0.184,0.111
		c-0.521,0.332-0.998,0.726-1.421,1.173c-0.056,0.059-0.11,0.119-0.164,0.18c-0.182,0.205-0.354,0.418-0.512,0.642
		c-0.022,0.031-0.046,0.059-0.067,0.09c-0.181,0.263-0.341,0.539-0.487,0.825c-0.011,0.021-0.025,0.04-0.036,0.061l-16,32
		c-1.853,3.705-0.351,8.21,3.354,10.062c3.707,1.853,8.211,0.351,10.063-3.354l1.792-3.584v16.23c0,39.977-32.523,72.5-72.5,72.5
		c-4.143,0-7.5,3.358-7.5,7.5S275.358,263,279.501,263z"/>
	<path d="M439.501,320h-8.5V47.5c0-12.958-10.542-23.5-23.5-23.5h-168.5V7.5c0-4.142-3.357-7.5-7.5-7.5s-7.5,3.358-7.5,7.5V24
		h-168.5c-12.958,0-23.5,10.542-23.5,23.5V320h-8.5c-4.143,0-7.5,3.358-7.5,7.5s3.357,7.5,7.5,7.5h109.177l-44.2,117.867
		c-1.454,3.878,0.511,8.201,4.389,9.656c0.868,0.325,1.758,0.479,2.633,0.479c3.036,0,5.895-1.858,7.023-4.869L148.698,335h75.302
		v120.5c0,4.142,3.357,7.5,7.5,7.5s7.5-3.358,7.5-7.5V335h75.302l46.175,123.133c1.129,3.011,3.986,4.869,7.023,4.869
		c0.875,0,1.765-0.154,2.633-0.479c3.878-1.455,5.843-5.777,4.389-9.656L330.323,335h109.177c4.143,0,7.5-3.358,7.5-7.5
		S443.644,320,439.501,320z M47.001,47.5c0-4.687,3.813-8.5,8.5-8.5h352c4.687,0,8.5,3.813,8.5,8.5V320h-369V47.5z"/>
</g>
<g>
</g>
<g>
</g>
<g>
</g>
<g>
</g>
<g>
</g>
<g>
</g>
<g>
</g>
<g>
</g>
<g>
</g>
<g>
</g>
<g>
</g>
<g>
</g>
<g>
</g>
<g>
</g>
<g>
</g>
</svg>
