<?xml version="1.0" encoding="iso-8859-1"?>
<!-- Generator: Adobe Illustrator 19.0.0, SVG Export Plug-In . SVG Version: 6.00 Build 0)  -->
<svg version="1.1" id="Capa_1" xmlns="http://www.w3.org/2000/svg" xmlns:xlink="http://www.w3.org/1999/xlink" x="0px" y="0px"
	 viewBox="0 0 463 463" style="enable-background:new 0 0 463 463;" xml:space="preserve">
<path d="M397.825,294.74l-75.603-20.199c-0.714-6.752-4.315-13.116-10.312-17.113l-12.251-8.167
	c-1.416-0.945-3.057-1.334-4.66-1.227v-6.859c24.325-18.955,40-48.517,40-81.674v-24v-72c0-19.981-9.826-36.387-28.416-47.446
	C288.677,5.401,263.415,0,231.5,0c-45.576,0-62.623,15.888-68.41,24.167C138.911,26.03,123.9,43.474,120.637,73.76
	c-1.856,17.233,0.28,35.796,2.4,48.333c1.224,7.236,2.544,13.141,3.437,16.82c0.561,2.313,1.024,4.211,1.526,5.773V159.5
	c0,33.157,15.675,62.719,40,81.674v6.859c-1.603-0.107-3.244,0.282-4.66,1.227l-12.251,8.167
	c-5.992,3.995-9.592,10.351-10.31,17.098l-75.611,20.212C40.929,301.216,24,323.264,24,348.354V439.5
	c0,12.958,10.542,23.5,23.5,23.5h368c12.958,0,23.5-10.542,23.5-23.5v-91.141C439,323.266,422.068,301.217,397.825,294.74z
	 M351.5,384c-4.143,0-7.5,3.358-7.5,7.5V448h-25V289.28l0.033-0.066L344,295.885V359.5c0,4.142,3.357,7.5,7.5,7.5s7.5-3.358,7.5-7.5
	v-59.607l25,6.68V448h-25v-56.5C359,387.358,355.643,384,351.5,384z M111.5,384c-4.143,0-7.5,3.358-7.5,7.5V448H79V306.566l25-6.683
	V359.5c0,4.142,3.357,7.5,7.5,7.5s7.5-3.358,7.5-7.5v-63.627l24.961-6.672c0.013,0.027,0.026,0.052,0.039,0.079V448h-25v-56.5
	C119,387.358,115.643,384,111.5,384z M159,319.296c1.761,3.523,3.5,7.002,5.159,10.321l11.644,23.273
	c1.503,2.998,2.691,5.366,6.439,6.003c0.419,0.071,0.84,0.106,1.258,0.106c0.167,0,0.334-0.013,0.5-0.024V448h-25V319.296z
	 M199,347.58c9.837-8.153,18.694-13.44,25-16.656V448h-25V347.58z M239,330.925c6.31,3.217,15.165,8.503,25,16.655V448h-25V330.925z
	 M279,358.976c0.166,0.011,0.333,0.024,0.5,0.024c0.418,0,0.839-0.035,1.258-0.106c3.748-0.638,4.937-3.005,6.439-6.003L304,319.283
	V448h-25V358.976z M296.456,265.151l7.135,4.757c3.559,2.373,4.802,7.043,2.893,10.865c-0.531,1.062-1.042,2.086-1.56,3.122
	c-0.037,0.068-0.068,0.138-0.104,0.207c-13.205,26.426-22.367,44.754-27.397,54.808c-0.847-1.091-1.986-1.938-3.302-2.43
	c-11.61-9.721-22.088-15.874-29.465-19.529L296.456,265.151z M143.812,49.952C149.111,42.583,156.859,39,167.5,39
	c3.207,0,5.925-1.674,6.961-4.695c0.344-0.693,2.67-4.95,9.928-9.335C191.914,20.421,206.196,15,231.5,15
	c56.243,0,88.5,17.678,88.5,48.5v47.229L301.74,83.34c-1.735-2.604-4.908-3.855-7.951-3.142
	c-41.24,9.665-125.27,7.823-126.113,7.804c-1.673-0.041-3.329,0.488-4.676,1.498c-0.723,0.542-13.926,10.615-25.152,30.381
	C134.246,98.382,131.922,66.486,143.812,49.952z M143,159.5v-14.741c8.029-23.2,22.131-37.244,27.158-41.706
	c14.802,0.249,81.864,0.879,121.935-7.143L320,137.771V159.5c0,48.799-39.701,88.5-88.5,88.5S143,208.299,143,159.5z M231.5,263
	c17.515,0,34.024-4.379,48.5-12.091v9.484l-48.5,48.5l-48.5-48.5v-9.484C197.476,258.621,213.985,263,231.5,263z M159.409,269.908
	l7.135-4.757l51.801,51.8c-7.377,3.655-17.855,9.808-29.466,19.529c-1.316,0.492-2.455,1.339-3.302,2.43
	c-5.221-10.435-14.709-29.415-27.42-54.854c-0.026-0.05-0.049-0.103-0.076-0.152c-0.519-1.039-1.034-2.07-1.564-3.13
	C154.607,276.951,155.851,272.28,159.409,269.908z M39,439.5v-91.146c0-16.513,10.052-31.217,25-37.412V448H47.5
	C42.813,448,39,444.187,39,439.5z M424,439.5c0,4.687-3.813,8.5-8.5,8.5H399V310.947c14.949,6.194,25,20.898,25,37.412V439.5z"/>
<g>
</g>
<g>
</g>
<g>
</g>
<g>
</g>
<g>
</g>
<g>
</g>
<g>
</g>
<g>
</g>
<g>
</g>
<g>
</g>
<g>
</g>
<g>
</g>
<g>
</g>
<g>
</g>
<g>
</g>
</svg>
