<?xml version="1.0" encoding="utf-8"?>
<!-- Generator: Adobe Illustrator 21.1.0, SVG Export Plug-In . SVG Version: 6.00 Build 0)  -->
<svg version="1.1" id="Capa_1" xmlns="http://www.w3.org/2000/svg" xmlns:xlink="http://www.w3.org/1999/xlink" x="0px" y="0px"
	 viewBox="0 0 463 463" style="enable-background:new 0 0 463 463;" xml:space="preserve">
<style type="text/css">
	.st0{fill:#5C5C6A;stroke:#000000;stroke-miterlimit:10;}
</style>
<g>
	<path class="st0" d="M191.5,47c2,0,3.9-0.8,5.3-2.2c1.4-1.4,2.2-3.3,2.2-5.3s-0.8-3.9-2.2-5.3c-1.4-1.4-3.3-2.2-5.3-2.2
		s-3.9,0.8-5.3,2.2c-1.4,1.4-2.2,3.3-2.2,5.3c0,2,0.8,3.9,2.2,5.3C187.6,46.2,189.5,47,191.5,47z"/>
	<path class="st0" d="M159.5,143h104c4.1,0,7.5-3.4,7.5-7.5s-3.4-7.5-7.5-7.5h-104c-4.1,0-7.5,3.4-7.5,7.5S155.4,143,159.5,143z"/>
	<path class="st0" d="M263.5,208h-16c-4.1,0-7.5,3.4-7.5,7.5s3.4,7.5,7.5,7.5h16c4.1,0,7.5-3.4,7.5-7.5S267.6,208,263.5,208z"/>
	<path class="st0" d="M159.5,223h56c4.1,0,7.5-3.4,7.5-7.5s-3.4-7.5-7.5-7.5h-56c-4.1,0-7.5,3.4-7.5,7.5S155.4,223,159.5,223z"/>
	<path class="st0" d="M175.5,288h-16c-4.1,0-7.5,3.4-7.5,7.5s3.4,7.5,7.5,7.5h16c4.1,0,7.5-3.4,7.5-7.5S179.6,288,175.5,288z"/>
	<path class="st0" d="M159.5,183h104c4.1,0,7.5-3.4,7.5-7.5s-3.4-7.5-7.5-7.5h-104c-4.1,0-7.5,3.4-7.5,7.5S155.4,183,159.5,183z"/>
	<path class="st0" d="M159.5,263h32c4.1,0,7.5-3.4,7.5-7.5s-3.4-7.5-7.5-7.5h-32c-4.1,0-7.5,3.4-7.5,7.5S155.4,263,159.5,263z"/>
	<path class="st0" d="M263.5,248h-40c-4.1,0-7.5,3.4-7.5,7.5s3.4,7.5,7.5,7.5h40c4.1,0,7.5-3.4,7.5-7.5S267.6,248,263.5,248z"/>
	<path class="st0" d="M127.5,128h-8c-4.1,0-7.5,3.4-7.5,7.5s3.4,7.5,7.5,7.5h8c4.1,0,7.5-3.4,7.5-7.5S131.6,128,127.5,128z"/>
	<path class="st0" d="M127.5,208h-8c-4.1,0-7.5,3.4-7.5,7.5s3.4,7.5,7.5,7.5h8c4.1,0,7.5-3.4,7.5-7.5S131.6,208,127.5,208z"/>
	<path class="st0" d="M127.5,288h-8c-4.1,0-7.5,3.4-7.5,7.5s3.4,7.5,7.5,7.5h8c4.1,0,7.5-3.4,7.5-7.5S131.6,288,127.5,288z"/>
	<path class="st0" d="M127.5,168h-8c-4.1,0-7.5,3.4-7.5,7.5s3.4,7.5,7.5,7.5h8c4.1,0,7.5-3.4,7.5-7.5S131.6,168,127.5,168z"/>
	<path class="st0" d="M127.5,248h-8c-4.1,0-7.5,3.4-7.5,7.5s3.4,7.5,7.5,7.5h8c4.1,0,7.5-3.4,7.5-7.5S131.6,248,127.5,248z"/>
	<path class="st0" d="M127.5,328h-8c-4.1,0-7.5,3.4-7.5,7.5s3.4,7.5,7.5,7.5h8c4.1,0,7.5-3.4,7.5-7.5S131.6,328,127.5,328z"/>
	<path class="st0" d="M415.5,288H343V63.5c0-17.4-14.1-31.5-31.5-31.5h-41.7c-3.1-9.3-11.9-16-22.3-16h-24.4
		c-7.4-10-19.1-16-31.6-16s-24.2,6-31.6,16h-24.4c-10.3,0-19.1,6.7-22.3,16H71.5C54.1,32,40,46.1,40,63.5v336
		c0,17.4,14.1,31.5,31.5,31.5h108.4c16.1,19.5,40.4,32,67.6,32c48.2,0,87.5-39.3,87.5-87.5v-25l81.9-15.6c3.5-0.7,6.1-3.8,6.1-7.4
		v-32C423,291.4,419.6,288,415.5,288z M328,63.5V288h-17V71.5c0-4.1-3.4-7.5-7.5-7.5H271c0-0.2,0-0.3,0-0.5V47h40.5
		C320.6,47,328,54.4,328,63.5z M174.1,328h-14.6c-4.1,0-7.5,3.4-7.5,7.5s3.4,7.5,7.5,7.5h6.8c-4,10.1-6.3,21-6.3,32.5
		c0,2.9,0.1,5.7,0.4,8.5H87V79h30.9c4.3,4.9,10.6,8,17.6,8h112c7,0,13.3-3.1,17.6-8H296v209h-48.5C216.8,288,189.7,303.9,174.1,328z
		 M135.5,31h28.4c2.7,0,5.1-1.4,6.5-3.7c4.5-7.7,12.4-12.3,21.1-12.3s16.6,4.6,21.1,12.3c1.3,2.3,3.8,3.7,6.5,3.7h28.4
		c4.7,0,8.5,3.8,8.5,8.5v24c0,4.7-3.8,8.5-8.5,8.5h-112c-4.7,0-8.5-3.8-8.5-8.5v-24C127,34.8,130.8,31,135.5,31z M71.5,416
		c-9.1,0-16.5-7.4-16.5-16.5v-336C55,54.4,62.4,47,71.5,47H112v16.5c0,0.2,0,0.3,0,0.5H79.5c-4.1,0-7.5,3.4-7.5,7.5v320
		c0,4.1,3.4,7.5,7.5,7.5h83.7c1.7,5.9,3.9,11.6,6.7,17H71.5z M408,321.3l-81.9,15.6c-3.5,0.7-6.1,3.8-6.1,7.4v31.2
		c0,40-32.5,72.5-72.5,72.5S175,415.5,175,375.5s32.5-72.5,72.5-72.5H408V321.3z"/>
	<path class="st0" d="M192,375.5c0,30.6,24.9,55.5,55.5,55.5s55.5-24.9,55.5-55.5c0-6.3-1.1-12.6-3.2-18.5c-1.4-3.9-5.7-6-9.6-4.6
		c-3.9,1.4-6,5.7-4.6,9.6c1.5,4.3,2.3,8.9,2.3,13.5c0,22.3-18.2,40.5-40.5,40.5S207,397.8,207,375.5s18.2-40.5,40.5-40.5
		c7.1,0,14.1,1.9,20.2,5.4c3.6,2.1,8.2,0.8,10.2-2.7c2.1-3.6,0.8-8.2-2.7-10.2c-8.4-4.8-18-7.4-27.7-7.4
		C216.9,320,192,344.9,192,375.5z"/>
</g>
</svg>
