<?xml version="1.0" encoding="iso-8859-1"?>
<!-- Generator: Adobe Illustrator 19.0.0, SVG Export Plug-In . SVG Version: 6.00 Build 0)  -->
<svg version="1.1" id="Capa_1" xmlns="http://www.w3.org/2000/svg" xmlns:xlink="http://www.w3.org/1999/xlink" x="0px" y="0px"
	 viewBox="0 0 463 463" style="enable-background:new 0 0 463 463;" xml:space="preserve">
<g>
	<path d="M431.5,72h-400C14.131,72,0,86.131,0,103.5v256C0,376.869,14.131,391,31.5,391h400c17.369,0,31.5-14.131,31.5-31.5v-256
		C463,86.131,448.869,72,431.5,72z M448,359.5c0,9.098-7.402,16.5-16.5,16.5h-400c-9.098,0-16.5-7.402-16.5-16.5v-256
		C15,94.402,22.402,87,31.5,87h400c9.098,0,16.5,7.402,16.5,16.5V359.5z"/>
	<path d="M191.5,160h-136c-8.547,0-15.5,6.953-15.5,15.5v112c0,8.547,6.953,15.5,15.5,15.5h136c8.547,0,15.5-6.953,15.5-15.5v-112
		C207,166.953,200.047,160,191.5,160z M192,287.5c0,0.276-0.224,0.5-0.5,0.5h-136c-0.276,0-0.5-0.224-0.5-0.5v-112
		c0-0.276,0.224-0.5,0.5-0.5h136c0.276,0,0.5,0.224,0.5,0.5V287.5z"/>
	<path d="M407.5,160h-136c-8.547,0-15.5,6.953-15.5,15.5v112c0,8.547,6.953,15.5,15.5,15.5h136c8.547,0,15.5-6.953,15.5-15.5v-112
		C423,166.953,416.047,160,407.5,160z M408,287.5c0,0.276-0.224,0.5-0.5,0.5h-136c-0.276,0-0.5-0.224-0.5-0.5v-112
		c0-0.276,0.224-0.5,0.5-0.5h136c0.276,0,0.5,0.224,0.5,0.5V287.5z"/>
	<path d="M231.5,200c-4.142,0-7.5,3.358-7.5,7.5v8c0,4.142,3.358,7.5,7.5,7.5s7.5-3.358,7.5-7.5v-8
		C239,203.358,235.642,200,231.5,200z"/>
	<path d="M231.5,240c-4.142,0-7.5,3.358-7.5,7.5v8c0,4.142,3.358,7.5,7.5,7.5s7.5-3.358,7.5-7.5v-8
		C239,243.358,235.642,240,231.5,240z"/>
	<path d="M103.5,192h-16c-8.547,0-15.5,6.953-15.5,15.5v48c0,8.547,6.953,15.5,15.5,15.5h16c8.547,0,15.5-6.953,15.5-15.5v-48
		C119,198.953,112.047,192,103.5,192z M104,255.5c0,0.276-0.224,0.5-0.5,0.5h-16c-0.276,0-0.5-0.224-0.5-0.5v-48
		c0-0.276,0.224-0.5,0.5-0.5h16c0.276,0,0.5,0.224,0.5,0.5V255.5z"/>
	<path d="M159.5,192h-16c-8.547,0-15.5,6.953-15.5,15.5c0,4.142,3.358,7.5,7.5,7.5s7.5-3.358,7.5-7.5c0-0.276,0.224-0.5,0.5-0.5h16
		c0.276,0,0.5,0.224,0.5,0.5V224h-24.5c-4.142,0-7.5,3.358-7.5,7.5v24c0,8.547,6.953,15.5,15.5,15.5h16
		c8.547,0,15.5-6.953,15.5-15.5c0-4.142-3.358-7.5-7.5-7.5s-7.5,3.358-7.5,7.5c0,0.276-0.224,0.5-0.5,0.5h-16
		c-0.276,0-0.5-0.224-0.5-0.5V239h24.5c4.142,0,7.5-3.358,7.5-7.5v-24C175,198.953,168.047,192,159.5,192z"/>
	<path d="M359.5,207h16c0.276,0,0.5,0.224,0.5,0.5c0,4.142,3.358,7.5,7.5,7.5s7.5-3.358,7.5-7.5c0-8.547-6.953-15.5-15.5-15.5h-16
		c-8.547,0-15.5,6.953-15.5,15.5v24c0,4.142,3.358,7.5,7.5,7.5H376v16.5c0,0.276-0.224,0.5-0.5,0.5h-16c-0.276,0-0.5-0.224-0.5-0.5
		c0-4.142-3.358-7.5-7.5-7.5s-7.5,3.358-7.5,7.5c0,8.547,6.953,15.5,15.5,15.5h16c8.547,0,15.5-6.953,15.5-15.5v-24
		c0-4.142-3.358-7.5-7.5-7.5H359v-16.5C359,207.224,359.224,207,359.5,207z"/>
	<path d="M319.5,192h-16c-8.547,0-15.5,6.953-15.5,15.5v48c0,8.547,6.953,15.5,15.5,15.5h16c8.547,0,15.5-6.953,15.5-15.5v-48
		C335,198.953,328.047,192,319.5,192z M320,255.5c0,0.276-0.224,0.5-0.5,0.5h-16c-0.276,0-0.5-0.224-0.5-0.5v-48
		c0-0.276,0.224-0.5,0.5-0.5h16c0.276,0,0.5,0.224,0.5,0.5V255.5z"/>
</g>
<g>
</g>
<g>
</g>
<g>
</g>
<g>
</g>
<g>
</g>
<g>
</g>
<g>
</g>
<g>
</g>
<g>
</g>
<g>
</g>
<g>
</g>
<g>
</g>
<g>
</g>
<g>
</g>
<g>
</g>
</svg>
