<?xml version="1.0" encoding="iso-8859-1"?>
<!-- Generator: Adobe Illustrator 19.0.0, SVG Export Plug-In . SVG Version: 6.00 Build 0)  -->
<svg version="1.1" id="Layer_1" xmlns="http://www.w3.org/2000/svg" xmlns:xlink="http://www.w3.org/1999/xlink" x="0px" y="0px"
	 viewBox="0 0 512 512" style="enable-background:new 0 0 512 512;" xml:space="preserve">
<g>
	<g>
		<g>
			<path d="M384,196.267c-4.719,0-8.533,3.823-8.533,8.533v230.4c0,4.71,3.814,8.533,8.533,8.533s8.533-3.823,8.533-8.533V204.8
				C392.533,200.09,388.719,196.267,384,196.267z"/>
			<path d="M128,196.267c-4.719,0-8.533,3.823-8.533,8.533v230.4c0,4.71,3.814,8.533,8.533,8.533c4.719,0,8.533-3.823,8.533-8.533
				V204.8C136.533,200.09,132.719,196.267,128,196.267z"/>
			<path d="M282.564,314.718c9.737-7.825,16.102-19.686,16.102-33.118c0-23.526-19.14-42.667-42.667-42.667
				c-23.526,0-42.667,19.14-42.667,42.667c0,13.431,6.366,25.293,16.102,33.118C214.69,323.712,204.8,339.9,204.8,358.4
				c0,28.237,22.963,51.2,51.2,51.2s51.2-22.963,51.2-51.2C307.2,339.9,297.31,323.712,282.564,314.718z M256,256
				c14.114,0,25.6,11.486,25.6,25.6s-11.486,25.6-25.6,25.6s-25.6-11.486-25.6-25.6S241.886,256,256,256z M256,392.533
				c-18.825,0-34.133-15.309-34.133-34.133s15.309-34.133,34.133-34.133s34.133,15.309,34.133,34.133S274.825,392.533,256,392.533z"
				/>
			<path d="M438.366,188.339c-30.404-12.16-45.833-43.947-45.833-94.472V8.533C392.533,3.823,388.719,0,384,0h-51.2
				c-4.719,0-8.533,3.823-8.533,8.533v85.333c0,28.194-29.193,59.733-68.267,59.733s-68.267-31.539-68.267-59.733V8.533
				c0-4.71-3.814-8.533-8.533-8.533H128c-4.719,0-8.533,3.823-8.533,8.533v85.333c0,50.526-15.428,82.313-45.833,94.472
				c-3.243,1.306-5.367,4.437-5.367,7.927v273.067c0,23.526,19.14,42.667,42.667,42.667h290.133
				c23.526,0,42.667-19.14,42.667-42.667V196.267C443.733,192.777,441.609,189.645,438.366,188.339z M426.667,460.8H110.933
				c-4.719,0-8.533,3.823-8.533,8.533s3.814,8.533,8.533,8.533h314.155c-3.533,9.916-12.911,17.067-24.021,17.067H110.933
				c-14.114,0-25.6-11.486-25.6-25.6V201.822c33.527-16.256,51.2-53.419,51.2-107.955v-76.8h34.133v76.8
				c0,40.909,39.876,76.8,85.333,76.8c45.457,0,85.333-35.891,85.333-76.8v-76.8h34.133v76.8c0,54.536,17.673,91.699,51.2,107.955
				V460.8z"/>
		</g>
	</g>
</g>
<g>
</g>
<g>
</g>
<g>
</g>
<g>
</g>
<g>
</g>
<g>
</g>
<g>
</g>
<g>
</g>
<g>
</g>
<g>
</g>
<g>
</g>
<g>
</g>
<g>
</g>
<g>
</g>
<g>
</g>
</svg>
