<?xml version="1.0" encoding="iso-8859-1"?>
<!-- Generator: Adobe Illustrator 19.0.0, SVG Export Plug-In . SVG Version: 6.00 Build 0)  -->
<svg version="1.1" id="Capa_1" xmlns="http://www.w3.org/2000/svg" xmlns:xlink="http://www.w3.org/1999/xlink" x="0px" y="0px"
	 viewBox="0 0 463 463" style="enable-background:new 0 0 463 463;" xml:space="preserve">
<g>
	<path d="M455.5,356H431v-24.5c0-4.142-3.357-7.5-7.5-7.5s-7.5,3.358-7.5,7.5V356h-33v-24.5c0-4.142-3.357-7.5-7.5-7.5
		s-7.5,3.358-7.5,7.5V356h-33v-24.5c0-4.142-3.357-7.5-7.5-7.5s-7.5,3.358-7.5,7.5V356h-33v-24.5c0-4.142-3.357-7.5-7.5-7.5
		s-7.5,3.358-7.5,7.5V356h-33V99.5c0-4.142-3.357-7.5-7.5-7.5s-7.5,3.358-7.5,7.5V356h-33v-24.5c0-4.142-3.357-7.5-7.5-7.5
		s-7.5,3.358-7.5,7.5V356h-33v-24.5c0-4.142-3.357-7.5-7.5-7.5s-7.5,3.358-7.5,7.5V356H95v-24.5c0-4.142-3.357-7.5-7.5-7.5
		s-7.5,3.358-7.5,7.5V356H47v-24.5c0-4.142-3.357-7.5-7.5-7.5s-7.5,3.358-7.5,7.5V356H7.5c-4.143,0-7.5,3.358-7.5,7.5
		s3.357,7.5,7.5,7.5h448c4.143,0,7.5-3.358,7.5-7.5S459.643,356,455.5,356z"/>
	<path d="M111.5,284c-9.979,0-19.563-3.005-27.714-8.692c-3.399-2.37-8.073-1.537-10.442,1.86c-2.37,3.397-1.537,8.072,1.86,10.442
		C85.886,295.062,98.437,299,111.5,299c35.014,0,63.5-28.486,63.5-63.5S146.514,172,111.5,172c-8.511,0-16.8,1.682-24.5,4.907V139
		h72.5c4.143,0,7.5-3.358,7.5-7.5s-3.357-7.5-7.5-7.5h-80c-4.143,0-7.5,3.358-7.5,7.5v56c0,0.341,0.031,0.675,0.075,1.004
		c-0.253,1.808,0.142,3.711,1.269,5.327c2.369,3.397,7.045,4.231,10.442,1.86C91.938,190.005,101.521,187,111.5,187
		c26.743,0,48.5,21.757,48.5,48.5S138.243,284,111.5,284z"/>
	<path d="M339.5,299c28.397,0,51.5-23.103,51.5-51.5v-72c0-28.397-23.103-51.5-51.5-51.5S288,147.103,288,175.5v72
		C288,275.897,311.103,299,339.5,299z M303,175.5c0-20.126,16.374-36.5,36.5-36.5s36.5,16.374,36.5,36.5v72
		c0,20.126-16.374,36.5-36.5,36.5S303,267.626,303,247.5V175.5z"/>
</g>
<g>
</g>
<g>
</g>
<g>
</g>
<g>
</g>
<g>
</g>
<g>
</g>
<g>
</g>
<g>
</g>
<g>
</g>
<g>
</g>
<g>
</g>
<g>
</g>
<g>
</g>
<g>
</g>
<g>
</g>
</svg>
